# xmcd
#
# Track frame offsets:
#	150
#	14700
#	26740
#	41635
#	54900
#	67615
#	84665
#	98880
#	113762
#	128390
#	148502
#	162312
#	180782
#	195492
#
# Disc length: 2784 seconds
#
# Revision: 1
# Processed by: cddbd v1.5.1PL0 Copyright (c) Steve Scherf et al.
# Submitted via: CDex 1.50Beta5
#
DISCID=a90ade0e
DTITLE=三橋美智也 - 三橋美智也民謡3岩手.宮城 Disc 3
DYEAR=1900
DGENRE=Other
TTITLE0=外山節
TTITLE1=南部牛追唄
TTITLE2=南部子守歌
TTITLE3=からめ節
TTITLE4=南部木挽唄
TTITLE5=沢内甚句
TTITLE6=さんさ時雨
TTITLE7=斎太郎節
TTITLE8=塩釜甚句
TTITLE9=お立ち酒
TTITLE10=米節(博多小女郎浪枕)
TTITLE11=新さんさ時雨
TTITLE12=夏の山唄
TTITLE13=長持唄
EXTD=
EXTT0=
EXTT1=
EXTT2=
EXTT3=
EXTT4=
EXTT5=
EXTT6=
EXTT7=
EXTT8=
EXTT9=
EXTT10=
EXTT11=
EXTT12=
EXTT13=
PLAYORDER=
